<mxfile host="app.diagrams.net" modified="2024-05-14T03:22:46.536Z" agent="Mozilla/5.0 (Windows NT 10.0; Win64; x64) AppleWebKit/537.36 (KHTML, like Gecko) Chrome/124.0.0.0 Safari/537.36" etag="mxv4c4j1yASfbL9kpykY" version="24.4.0" type="github">
  <diagram name="Page-1" id="IesKG8iH8qhYKcvTtGjX">
    <mxGraphModel dx="581" dy="368" grid="0" gridSize="10" guides="1" tooltips="1" connect="1" arrows="1" fold="1" page="1" pageScale="1" pageWidth="850" pageHeight="1100" math="0" shadow="0">
      <root>
        <mxCell id="0" />
        <mxCell id="1" parent="0" />
        <mxCell id="hiK786gIKctCj-lyeoFi-1" value="" style="rounded=1;whiteSpace=wrap;html=1;fillColor=#f5f5f5;fontColor=#333333;strokeColor=#666666;" parent="1" vertex="1">
          <mxGeometry x="217.51" y="118" width="301.49" height="161" as="geometry" />
        </mxCell>
        <mxCell id="hiK786gIKctCj-lyeoFi-5" value="" style="endArrow=classic;html=1;rounded=0;entryX=0.02;entryY=0.494;entryDx=0;entryDy=0;entryPerimeter=0;" parent="1" edge="1" target="InyE1tKlqnGULUrLkj0f-1">
          <mxGeometry width="50" height="50" relative="1" as="geometry">
            <mxPoint x="99" y="196" as="sourcePoint" />
            <mxPoint x="217.51" y="195.5" as="targetPoint" />
          </mxGeometry>
        </mxCell>
        <mxCell id="hiK786gIKctCj-lyeoFi-70" value="&lt;b&gt;输入特征图&lt;/b&gt;" style="text;html=1;align=center;verticalAlign=middle;whiteSpace=wrap;rounded=0;" parent="1" vertex="1">
          <mxGeometry x="119.51" y="166" width="80" height="30" as="geometry" />
        </mxCell>
        <mxCell id="hiK786gIKctCj-lyeoFi-71" value="&lt;b&gt;输出特征图&lt;/b&gt;" style="text;html=1;align=center;verticalAlign=middle;whiteSpace=wrap;rounded=0;" parent="1" vertex="1">
          <mxGeometry x="519" y="166" width="80" height="31" as="geometry" />
        </mxCell>
        <mxCell id="InyE1tKlqnGULUrLkj0f-8" style="edgeStyle=orthogonalEdgeStyle;rounded=0;orthogonalLoop=1;jettySize=auto;html=1;" edge="1" parent="1" source="InyE1tKlqnGULUrLkj0f-1" target="InyE1tKlqnGULUrLkj0f-2">
          <mxGeometry relative="1" as="geometry" />
        </mxCell>
        <mxCell id="InyE1tKlqnGULUrLkj0f-1" value="&lt;b&gt;Conv&lt;/b&gt;" style="shape=cube;whiteSpace=wrap;html=1;boundedLbl=1;backgroundOutline=1;darkOpacity=0.05;darkOpacity2=0.1;fillColor=#dae8fc;strokeColor=#6c8ebf;" vertex="1" parent="1">
          <mxGeometry x="233" y="128.63" width="54" height="134.75" as="geometry" />
        </mxCell>
        <mxCell id="InyE1tKlqnGULUrLkj0f-9" style="edgeStyle=orthogonalEdgeStyle;rounded=0;orthogonalLoop=1;jettySize=auto;html=1;" edge="1" parent="1" source="InyE1tKlqnGULUrLkj0f-2" target="InyE1tKlqnGULUrLkj0f-3">
          <mxGeometry relative="1" as="geometry" />
        </mxCell>
        <mxCell id="InyE1tKlqnGULUrLkj0f-2" value="&lt;b&gt;BN&lt;/b&gt;" style="shape=cube;whiteSpace=wrap;html=1;boundedLbl=1;backgroundOutline=1;darkOpacity=0.05;darkOpacity2=0.1;fillColor=#fff2cc;strokeColor=#d6b656;" vertex="1" parent="1">
          <mxGeometry x="304" y="128.63" width="54" height="134.75" as="geometry" />
        </mxCell>
        <mxCell id="InyE1tKlqnGULUrLkj0f-14" style="edgeStyle=orthogonalEdgeStyle;rounded=0;orthogonalLoop=1;jettySize=auto;html=1;" edge="1" parent="1" source="InyE1tKlqnGULUrLkj0f-3" target="InyE1tKlqnGULUrLkj0f-4">
          <mxGeometry relative="1" as="geometry" />
        </mxCell>
        <mxCell id="InyE1tKlqnGULUrLkj0f-3" value="&lt;b&gt;ReLU&lt;/b&gt;" style="shape=cube;whiteSpace=wrap;html=1;boundedLbl=1;backgroundOutline=1;darkOpacity=0.05;darkOpacity2=0.1;fillColor=#e1d5e7;strokeColor=#9673a6;" vertex="1" parent="1">
          <mxGeometry x="378" y="128.63" width="50" height="134.75" as="geometry" />
        </mxCell>
        <mxCell id="InyE1tKlqnGULUrLkj0f-15" style="edgeStyle=orthogonalEdgeStyle;rounded=0;orthogonalLoop=1;jettySize=auto;html=1;" edge="1" parent="1" source="InyE1tKlqnGULUrLkj0f-4">
          <mxGeometry relative="1" as="geometry">
            <mxPoint x="617.0952962239583" y="196.005" as="targetPoint" />
          </mxGeometry>
        </mxCell>
        <mxCell id="InyE1tKlqnGULUrLkj0f-4" value="&lt;b&gt;AU&lt;/b&gt;" style="shape=cube;whiteSpace=wrap;html=1;boundedLbl=1;backgroundOutline=1;darkOpacity=0.05;darkOpacity2=0.1;fillColor=#f8cecc;strokeColor=#b85450;" vertex="1" parent="1">
          <mxGeometry x="452" y="128.63" width="54" height="134.75" as="geometry" />
        </mxCell>
      </root>
    </mxGraphModel>
  </diagram>
</mxfile>
